<?xml version="1.0" encoding="utf-8"?>
<!-- Generator: Adobe Illustrator 13.0.0, SVG Export Plug-In . SVG Version: 6.00 Build 14948)  -->
<!DOCTYPE svg PUBLIC "-//W3C//DTD SVG 1.1//EN" "http://www.w3.org/Graphics/SVG/1.1/DTD/svg11.dtd">
<svg version="1.1" id="Layer_1" xmlns="http://www.w3.org/2000/svg" xmlns:xlink="http://www.w3.org/1999/xlink" x="0px" y="0px"
	 width="27px" height="50px" viewBox="0 0 27 50" enable-background="new 0 0 27 50" xml:space="preserve">
<g>
	<path fill="none" d="M4.555,27.609l-2.773,3.748l2.85,2.851l15.1-20.85l-4.134-4.135L0,20.517v4.43l1.088-0.804L4.555,27.609z
		 M14.339,14.332L6.609,24.783l-2.722-2.722L14.339,14.332z"/>
	<path fill="none" d="M19.346,21.601L10,30.945c-2.878,2.877-3.083,5.957-0.309,8.73c2.773,2.775,5.854,2.569,8.729-0.306
		l2.388-2.389l-2.67-2.671l-2.567,2.567c-1.284,1.285-2.312,1.182-3.211,0.283c-0.898-0.899-1-1.926,0.283-3.209l9.708-9.707
		c1.283-1.285,2.335-1.207,3.234-0.309c0.898,0.897,0.976,1.952-0.309,3.234l-1.926,1.927l2.67,2.671L27,30.791V20.378
		C24.52,18.619,21.854,19.091,19.346,21.601z"/>
	<path d="M26.021,31.769l-2.67-2.671l1.926-1.927c1.284-1.282,1.207-2.337,0.309-3.234c-0.899-0.898-1.951-0.977-3.234,0.309
		l-9.708,9.707c-1.283,1.283-1.182,2.31-0.283,3.209c0.899,0.898,1.927,1.002,3.211-0.283l2.567-2.567l2.67,2.671l-2.388,2.389
		c-2.876,2.875-5.956,3.081-8.729,0.306c-2.774-2.773-2.569-5.854,0.309-8.73l9.346-9.345c2.509-2.51,5.174-2.982,7.654-1.222V0H0
		v20.517L15.597,9.224l4.134,4.135l-15.1,20.85l-2.85-2.851l2.773-3.748l-3.467-3.467L0,24.947V50h27V30.791L26.021,31.769z"/>
	<polygon points="14.339,14.332 3.888,22.062 6.609,24.783 	"/>
</g>
</svg>
