<?xml version="1.0" encoding="utf-8"?>
<!-- Generator: Adobe Illustrator 13.0.0, SVG Export Plug-In . SVG Version: 6.00 Build 14948)  -->
<!DOCTYPE svg PUBLIC "-//W3C//DTD SVG 1.1//EN" "http://www.w3.org/Graphics/SVG/1.1/DTD/svg11.dtd">
<svg version="1.1" id="Layer_1" xmlns="http://www.w3.org/2000/svg" xmlns:xlink="http://www.w3.org/1999/xlink" x="0px" y="0px"
	 width="44.001px" height="70px" viewBox="0 0 44.001 70" enable-background="new 0 0 44.001 70" xml:space="preserve">
<path fill="#232420" d="M31.538,29.688c4.087-4.085,8.428-4.837,12.463-1.924V0H0v28.109L25.473,9.662l6.688,6.69L7.732,50.089
	L3.12,45.478l4.486-6.066l-5.609-5.607L0,35.281V70h44.001V44.48l-1.662,1.66l-4.318-4.32l3.115-3.115
	c2.076-2.079,1.951-3.78,0.498-5.233c-1.455-1.455-3.156-1.581-5.234,0.497L20.695,49.673c-2.079,2.076-1.913,3.74-0.458,5.193
	c1.453,1.455,3.116,1.621,5.193-0.457l4.156-4.156l4.318,4.322l-3.863,3.865c-4.653,4.652-9.639,4.984-14.125,0.498
	c-4.488-4.49-4.154-9.473,0.497-14.126L31.538,29.688z M23.437,17.931L6.526,30.436l4.405,4.405L23.437,17.931z"/>
</svg>
